<?xml version="1.0" encoding="UTF-8" standalone="no"?>
<!DOCTYPE svg PUBLIC "-//W3C//DTD SVG 1.1//EN" "http://www.w3.org/Graphics/SVG/1.1/DTD/svg11.dtd">
<svg width="100%" height="100%" viewBox="0 0 3463 684" version="1.1" xmlns="http://www.w3.org/2000/svg" xmlns:xlink="http://www.w3.org/1999/xlink" xml:space="preserve" xmlns:serif="http://www.serif.com/" style="fill-rule:evenodd;clip-rule:evenodd;stroke-linejoin:round;stroke-miterlimit:2;">
    <g transform="matrix(4.16667,0,0,4.16667,0,0)">
        <path d="M449.597,12.303L454.228,12.303L454.228,53.596C454.228,56.546 453.691,58.693 452.615,60.038C451.538,61.383 450.064,62.055 448.196,62.055C446.652,62.055 444.914,61.69 442.978,60.958L442.978,56.89C444.196,57.514 445.293,57.826 446.272,57.826C447.51,57.826 448.435,57.321 449.042,56.309C449.413,55.663 449.597,54.318 449.597,52.272L449.597,12.303Z" style="fill:#0fb2c9;fill-rule:nonzero;"/>
        <path d="M488.842,16.585C485.047,16.585 481.786,17.939 479.058,20.648C476.332,23.356 474.967,26.632 474.967,30.475C474.967,32.952 475.589,35.262 476.833,37.405C478.076,39.546 479.756,41.2 481.873,42.364C483.989,43.53 486.312,44.112 488.842,44.112C491.374,44.112 493.697,43.53 495.813,42.364C497.929,41.2 499.61,39.546 500.853,37.405C502.096,35.262 502.718,32.952 502.718,30.475C502.718,26.632 501.349,23.356 498.612,20.648C495.874,17.939 492.618,16.585 488.842,16.585ZM488.859,12.269C494.325,12.269 498.855,14.181 502.449,18.002C505.715,21.488 507.349,25.614 507.349,30.38C507.349,35.167 505.623,39.351 502.171,42.931C498.719,46.512 494.282,48.302 488.859,48.302C483.415,48.302 478.966,46.512 475.515,42.931C472.062,39.351 470.338,35.167 470.338,30.38C470.338,25.636 471.97,21.519 475.238,18.033C478.831,14.192 483.372,12.269 488.859,12.269Z" style="fill:#0fb2c9;fill-rule:nonzero;"/>
        <path d="M541.247,16.519C538.706,16.519 536.361,17.123 534.21,18.328C532.061,19.533 530.351,21.226 529.081,23.407C527.811,25.586 527.175,27.893 527.175,30.324C527.175,32.735 527.816,35.04 529.096,37.242C530.378,39.443 532.099,41.157 534.259,42.382C536.419,43.609 538.738,44.221 541.214,44.221C543.71,44.221 546.079,43.614 548.314,42.398C550.551,41.182 552.272,39.537 553.478,37.462C554.682,35.387 555.285,33.049 555.285,30.45C555.285,26.488 553.932,23.176 551.229,20.514C548.526,17.851 545.198,16.519 541.247,16.519ZM559.492,12.302L559.492,48.283L554.992,48.283L554.992,41.515C553.078,43.761 550.931,45.45 548.551,46.583C546.17,47.717 543.567,48.283 540.741,48.283C535.718,48.283 531.432,46.526 527.876,43.011C524.322,39.495 522.544,35.219 522.544,30.182C522.544,25.25 524.338,21.033 527.925,17.527C531.513,14.022 535.828,12.269 540.872,12.269C543.786,12.269 546.419,12.867 548.779,14.064C551.137,15.26 553.208,17.055 554.992,19.447L554.992,12.302L559.492,12.302Z" style="fill:#0fb2c9;fill-rule:nonzero;"/>
        <path d="M578.113,12.303L582.677,12.303L582.677,19.469C584.505,17.059 586.527,15.257 588.744,14.061C590.961,12.867 593.375,12.269 595.982,12.269C598.635,12.269 600.989,12.937 603.042,14.272C605.097,15.606 606.615,17.403 607.592,19.664C608.571,21.923 609.06,25.443 609.06,30.221L609.06,48.302L604.495,48.302L604.495,31.545C604.495,27.499 604.324,24.797 603.986,23.441C603.457,21.116 602.442,19.368 600.942,18.194C599.442,17.021 597.485,16.435 595.072,16.435C592.311,16.435 589.837,17.339 587.652,19.147C585.466,20.955 584.026,23.194 583.331,25.863C582.896,27.606 582.677,30.792 582.677,35.42L582.677,48.302L578.113,48.302L578.113,12.303Z" style="fill:#0fb2c9;fill-rule:nonzero;"/>
        <path d="M627.191,12.303L631.754,12.303L631.754,19.469C633.583,17.059 635.604,15.257 637.821,14.061C640.039,12.867 642.452,12.269 645.06,12.269C647.712,12.269 650.066,12.937 652.12,14.272C654.174,15.606 655.691,17.403 656.669,19.664C657.649,21.923 658.137,25.443 658.137,30.221L658.137,48.302L653.572,48.302L653.572,31.545C653.572,27.499 653.402,24.797 653.063,23.441C652.534,21.116 651.519,19.368 650.019,18.194C648.519,17.021 646.562,16.435 644.149,16.435C641.387,16.435 638.915,17.339 636.73,19.147C634.544,20.955 633.103,23.194 632.409,25.863C631.972,27.606 631.754,30.792 631.754,35.42L631.754,48.302L627.191,48.302L627.191,12.303Z" style="fill:#0fb2c9;fill-rule:nonzero;"/>
        <path d="M706.136,26.821C705.528,24.47 704.64,22.59 703.475,21.183C702.311,19.777 700.77,18.643 698.855,17.782C696.94,16.921 694.925,16.49 692.815,16.49C689.332,16.49 686.34,17.572 683.836,19.735C682.007,21.308 680.625,23.672 679.69,26.821L706.136,26.821ZM706.136,36.049L709.984,38.003C708.722,40.396 707.264,42.328 705.611,43.798C703.957,45.268 702.097,46.386 700.029,47.152C697.961,47.919 695.622,48.302 693.013,48.302C687.222,48.302 682.699,46.47 679.434,42.806C676.169,39.142 674.539,35 674.539,30.38C674.539,26.034 675.918,22.16 678.682,18.759C682.186,14.433 686.875,12.269 692.751,12.269C698.799,12.269 703.628,14.485 707.242,18.915C709.809,22.045 711.115,25.951 711.158,30.632L679.234,30.632C679.32,34.613 680.638,37.875 683.184,40.42C685.731,42.966 688.875,44.238 692.621,44.238C694.425,44.238 696.183,43.936 697.893,43.329C699.6,42.722 701.053,41.917 702.25,40.913C703.448,39.909 704.744,38.288 706.136,36.049Z" style="fill:#0fb2c9;fill-rule:nonzero;"/>
        <path d="M727.432,12.269L731.997,12.269L731.997,28.672C731.997,32.675 732.214,35.43 732.65,36.937C733.303,39.09 734.55,40.789 736.389,42.038C738.229,43.286 740.422,43.91 742.969,43.91C745.517,43.91 747.679,43.303 749.452,42.086C751.226,40.87 752.451,39.273 753.126,37.292C753.583,35.936 753.813,33.062 753.813,28.672L753.813,12.269L758.476,12.269L758.476,29.511C758.476,34.354 757.905,38.003 756.763,40.456C755.623,42.91 753.904,44.831 751.611,46.219C749.317,47.608 746.444,48.302 742.986,48.302C739.529,48.302 736.643,47.608 734.33,46.219C732.013,44.831 730.286,42.894 729.144,40.408C728.001,37.922 727.432,34.181 727.432,29.188L727.432,12.269Z" style="fill:#0fb2c9;fill-rule:nonzero;"/>
        <path d="M776.934,12.303L781.499,12.303L781.499,19.244C783.088,17.005 784.719,15.369 786.395,14.336C788.705,12.958 791.13,12.269 793.677,12.269C795.396,12.269 797.028,12.604 798.573,13.27C800.12,13.938 801.381,14.826 802.361,15.934C803.339,17.043 804.188,18.631 804.908,20.697C806.425,17.942 808.323,15.848 810.599,14.417C812.878,12.985 815.329,12.269 817.952,12.269C820.403,12.269 822.567,12.883 824.444,14.111C826.319,15.336 827.713,17.048 828.624,19.244C829.534,21.439 829.99,24.733 829.99,29.123L829.99,48.302L825.327,48.302L825.327,29.123C825.327,25.357 825.055,22.769 824.513,21.358C823.971,19.949 823.045,18.813 821.734,17.952C820.424,17.091 818.859,16.66 817.04,16.66C814.83,16.66 812.809,17.306 810.977,18.598C809.145,19.889 807.807,21.612 806.963,23.764C806.118,25.916 805.696,29.511 805.696,34.547L805.696,48.302L801.13,48.302L801.13,30.318C801.13,26.078 800.864,23.199 800.332,21.681C799.798,20.164 798.87,18.949 797.542,18.033C796.217,17.118 794.641,16.66 792.815,16.66C790.706,16.66 788.732,17.29 786.896,18.55C785.058,19.808 783.701,21.504 782.82,23.635C781.94,25.765 781.499,29.026 781.499,33.417L781.499,48.302L776.934,48.302L776.934,12.303Z" style="fill:#0fb2c9;fill-rule:nonzero;"/>
        <path d="M177.551,90.838L219.473,90.838L219.473,97.999L177.551,97.999L177.551,90.838ZM177.551,120.922L203.974,120.922L203.974,128.083L177.551,128.083L177.551,120.922ZM177.551,156.827L219.174,156.827L219.174,163.988L177.551,163.988L177.551,156.827Z" style="fill:#fff;fill-rule:nonzero;"/>
        <path d="M237.594,97.999L237.594,90.838L252.165,90.838C260.286,90.838 265.79,91.17 268.675,91.834C273.018,92.83 276.548,94.962 279.267,98.232C281.985,101.5 283.344,105.527 283.344,110.306C283.344,114.289 282.407,117.791 280.536,120.811C278.661,123.832 275.985,126.115 272.504,127.658C269.022,129.202 264.216,129.992 258.083,130.024L284.389,163.988L275.345,163.988L249.037,130.024L249.037,122.863L257.506,122.962C262.387,122.962 265.999,122.499 268.339,121.57C270.68,120.642 272.506,119.158 273.818,117.12C275.129,115.079 275.786,112.801 275.786,110.282C275.786,107.828 275.122,105.599 273.793,103.592C272.465,101.586 270.722,100.154 268.563,99.291C266.405,98.43 262.818,97.999 257.805,97.999L237.594,97.999Z" style="fill:#fff;fill-rule:nonzero;"/>
        <path d="M339.26,97.609C333.847,97.609 328.717,98.952 323.869,101.637C319.021,104.323 315.235,107.939 312.512,112.487C309.79,117.035 308.428,122.106 308.428,127.697C308.428,135.973 311.441,142.962 317.468,148.664C323.495,154.366 330.759,157.218 339.26,157.218C344.938,157.218 350.193,155.906 355.024,153.284C359.855,150.662 363.625,147.077 366.331,142.529C369.037,137.981 370.39,132.925 370.39,127.366C370.39,121.837 369.037,116.837 366.331,112.369C363.625,107.9 359.814,104.323 354.9,101.637C349.985,98.952 344.772,97.609 339.26,97.609ZM338.937,90.838C350.016,90.838 359.289,94.359 366.753,101.395C374.217,108.434 377.949,117.1 377.949,127.389C377.949,137.584 374.225,146.233 366.777,153.334C359.33,160.436 350.249,163.988 339.533,163.988C328.686,163.988 319.53,160.453 312.065,153.383C304.601,146.311 300.87,137.756 300.87,127.72C300.87,121.028 302.569,114.827 305.97,109.113C309.37,103.401 314.005,98.927 319.877,95.691C325.75,92.456 332.102,90.838 338.937,90.838Z" style="fill:#fff;fill-rule:nonzero;"/>
        <path d="M397.761,163.988L397.761,90.838L399.352,90.838L448.037,146.911L448.037,90.838L455.247,90.838L455.247,163.988L453.605,163.988L405.32,108.596L405.32,163.988L397.761,163.988Z" style="fill:#fff;fill-rule:nonzero;"/>
        <path d="M479.835,163.988L471.679,163.988L506.24,90.838L508.031,90.838L542.145,163.988L534.25,163.988L507.107,106.378L479.835,163.988Z" style="fill:#fff;fill-rule:nonzero;"/>
        <path d="M558.823,90.838L566.132,90.838L566.132,133.92C566.132,139.03 566.232,142.215 566.432,143.477C566.795,146.29 567.64,148.645 568.967,150.536C570.293,152.428 572.331,154.013 575.083,155.29C577.835,156.57 580.603,157.207 583.388,157.207C585.808,157.207 588.128,156.707 590.351,155.703C592.571,154.701 594.428,153.311 595.92,151.531C597.412,149.752 598.506,147.6 599.203,145.077C599.7,143.266 599.948,139.548 599.948,133.92L599.948,90.838L607.258,90.838L607.258,133.92C607.258,140.291 606.62,145.443 605.343,149.37C604.067,153.302 601.515,156.721 597.686,159.633C593.857,162.544 589.222,164 583.787,164C577.884,164 572.829,162.624 568.62,159.874C564.409,157.126 561.589,153.489 560.165,148.958C559.271,146.178 558.823,141.166 558.823,133.92L558.823,90.838Z" style="fill:#fff;fill-rule:nonzero;"/>
        <path d="M623.093,97.999L623.093,90.838L663.173,90.838L663.173,97.999L646.863,97.999L646.863,163.988L639.404,163.988L639.404,97.999L623.093,97.999Z" style="fill:#fff;fill-rule:nonzero;"/>
        <rect x="677.765" y="90.838" width="7.312" height="73.15" style="fill:#fff;fill-rule:nonzero;"/>
        <path d="M775.055,105.514L769.286,109.729C766.103,105.783 762.281,102.792 757.823,100.756C753.364,98.722 748.465,97.704 743.126,97.704C737.292,97.704 731.889,99.036 726.917,101.703C721.944,104.371 718.089,107.952 715.354,112.452C712.619,116.949 711.251,122.007 711.251,127.626C711.251,136.118 714.31,143.202 720.427,148.883C726.542,154.565 734.259,157.407 743.576,157.407C753.82,157.407 762.389,153.588 769.286,145.95L775.055,150.115C771.406,154.534 766.856,157.952 761.404,160.366C755.95,162.78 749.857,163.988 743.126,163.988C730.331,163.988 720.236,159.933 712.842,151.821C706.642,144.97 703.542,136.701 703.542,127.011C703.542,116.815 707.298,108.237 714.807,101.278C722.317,94.318 731.722,90.838 743.03,90.838C749.857,90.838 756.024,92.123 761.528,94.696C767.03,97.27 771.54,100.874 775.055,105.514Z" style="fill:#fff;fill-rule:nonzero;"/>
        <path d="M787.258,149.262L793.476,145.712C797.851,153.383 802.906,157.218 808.643,157.218C811.096,157.218 813.4,156.672 815.555,155.583C817.708,154.495 819.35,153.035 820.477,151.202C821.603,149.373 822.169,147.432 822.169,145.38C822.169,143.045 821.34,140.757 819.681,138.515C817.396,135.421 813.218,131.697 807.15,127.34C801.05,122.955 797.254,119.783 795.762,117.825C793.176,114.542 791.884,110.992 791.884,107.172C791.884,104.142 792.646,101.381 794.171,98.887C795.696,96.394 797.842,94.429 800.611,92.992C803.379,91.556 806.386,90.838 809.638,90.838C813.084,90.838 816.308,91.65 819.309,93.275C822.309,94.902 825.483,97.893 828.832,102.248L822.864,106.557C820.112,103.085 817.767,100.797 815.829,99.691C813.889,98.587 811.776,98.034 809.488,98.034C806.537,98.034 804.125,98.887 802.252,100.59C800.379,102.296 799.442,104.395 799.442,106.887C799.442,108.403 799.774,109.87 800.437,111.291C801.099,112.71 802.309,114.259 804.068,115.931C805.029,116.815 808.177,119.135 813.515,122.891C819.847,127.34 824.19,131.304 826.545,134.774C828.898,138.248 830.076,141.734 830.076,145.24C830.076,150.287 828.061,154.678 824.034,158.399C820.004,162.125 815.107,163.988 809.337,163.988C804.895,163.988 800.868,162.858 797.254,160.602C793.64,158.345 790.308,154.565 787.258,149.262Z" style="fill:#fff;fill-rule:nonzero;"/>
        <path d="M120.023,163.929L157.835,163.929L97.855,12.303L60.106,12.303L120.023,163.929Z" style="fill:#12b2ca;fill-rule:nonzero;"/>
        <path d="M0,163.929L37.938,163.988L128.378,89.466L0,163.929Z" style="fill:#fff;fill-rule:nonzero;"/>
        <path d="M60.106,12.303L0,163.929L37.938,163.988L97.855,12.303L60.106,12.303Z" style="fill:#12b2ca;fill-rule:nonzero;"/>
        <path d="M60.106,12.303L60.106,107.799L78.917,60.12L60.106,12.303Z" style="fill:#08515a;fill-rule:nonzero;"/>
        <path d="M257.999,0.41C254.455,0.96 250.954,3.277 250.954,3.277L218.802,22.967L214.635,22.068L218.156,19.968L218.563,18.35L216.559,15.191L214.904,14.915L206.336,20.084L206.125,20.232L171.689,12.803L165.61,16.485L203.005,33.195L172.35,54.416L159.367,50.69L154.746,53.051L167.697,59.636L167.484,61.818L169.364,63.356L185.206,57.878C185.206,57.878 203.848,49.076 223.198,37.063C246.228,22.764 259.812,13.152 263.248,10.177C266.682,7.201 267.625,3.609 267.625,3.609L267.625,1.056C267.625,1.056 262.249,-0.25 257.999,0.41Z" style="fill:#fff;"/>
        <path d="M172.774,52.669L179.074,48.101L168.587,42.698L165.769,44.708L167.736,51.424L172.774,52.669Z" style="fill:#fff;"/>
        <path d="M174.524,62.916L181.452,67.76L182.988,65.876L180.021,60.948L174.524,62.916Z" style="fill:#fff;"/>
        <path d="M238.064,34.207L232.273,37.7L231.268,34.614L217.895,42.959L237.526,67.744L241.059,65.315L234.172,43.517L241.316,39.257L241.723,37.639L239.719,34.483L238.064,34.207Z" style="fill:#fff;"/>
        <path d="M164.802,63.858L165.245,61.832L163.409,60.628L128.378,89.466L167.525,65.759L164.802,63.858Z" style="fill:#fff;fill-rule:nonzero;"/>
    </g>
</svg>
